<svg xmlns="http://www.w3.org/2000/svg" width="24" height="20" viewBox="0 0 24 20"><g><g><path fill="#fff" d="M9.23 18.177a1.826 1.826 0 0 0-1.846-1.817c-1.024 0-1.846.809-1.846 1.817 0 1.009.822 1.818 1.846 1.818s1.846-.81 1.846-1.818zm12.923 0a1.826 1.826 0 0 0-1.846-1.817c-1.024 0-1.846.809-1.846 1.817 0 1.009.822 1.818 1.846 1.818s1.846-.81 1.846-1.818zm1.846-15.449a.922.922 0 0 0-.923-.908H5.755C5.61 1.138 5.595.002 4.615.002H.923A.922.922 0 0 0 0 .911c0 .497.418.909.923.909h2.942l2.553 11.686c-.202.411-.88 1.505-.88 1.945 0 .497.418.909.923.909H21.23a.922.922 0 0 0 .923-.909.923.923 0 0 0-.923-.909H7.96c.144-.284.346-.582.346-.908 0-.327-.13-.682-.187-.995l15.057-1.732a.924.924 0 0 0 .822-.909z"/></g></g></svg>